<svg id="label" xmlns="http://www.w3.org/2000/svg" viewBox="0 0 600 226"><defs><style>.cls-1{fill:#e25027;}.cls-2{fill:#669eb2;}.cls-3{fill:#fff;}</style></defs><title>aerogeardigger_logo_final</title><path class="cls-1" d="M165.07,208.3H123.8V101.86h41.27c26.23,0,38.87,19.66,38.87,52.9C203.94,188.48,191.31,208.3,165.07,208.3Zm-2.88-88.38H147.8v70.32h14.4c12,0,16.48-14.22,16.48-35.16S174.19,119.92,162.19,119.92Z"/><path class="cls-1" d="M213.38,119.28v-23h24v23Zm.48,89V130.47h23V208.3Z"/><path class="cls-1" d="M291,209.9c-28.47,0-44.31-19.66-44.31-55.29,0-34.68,15.84-54.34,45.91-54.34a143.83,143.83,0,0,1,30.87,3.36l-3.36,17.1a170.89,170.89,0,0,0-27.51-1.92c-15,0-21,13.42-21,36.28s5.92,36.28,19.36,36.28c4,0,11.84-.32,14.88-1v-28H291.92v-19h36v61.85A163.09,163.09,0,0,1,291,209.9Z"/><path class="cls-1" d="M381.17,209.9c-28.47,0-44.31-19.66-44.31-55.29,0-34.68,15.84-54.34,45.91-54.34a143.83,143.83,0,0,1,30.87,3.36l-3.36,17.1a170.89,170.89,0,0,0-27.51-1.92c-15,0-21,13.42-21,36.28s5.92,36.28,19.36,36.28c4,0,11.84-.32,14.88-1v-28H382.13v-19h36v61.85A163.09,163.09,0,0,1,381.17,209.9Z"/><path class="cls-1" d="M431.72,208.3V101.86h67v18.38h-43v23.49h39.67v18.38H455.71v27.81h43V208.3Z"/><path class="cls-1" d="M543.69,165.63h-9V208.3h-24V101.86H553c21.28,0,34.55,8.15,34.55,31.32,0,15.66-7.2,25.57-19.2,29.41L596,208.3H567.21Zm1.12-46.35H534.73v29.57h10.08c10.72,0,18.24-3.68,18.24-15.66C563,120.56,555.53,119.28,544.81,119.28Z"/><path class="cls-2" d="M175.46,86.28H161.62L158.26,74H140.47l-3.36,12.32H124l17.28-55.82h16.78ZM142.91,64.9h12.84l-6.38-23.39Z"/><path class="cls-2" d="M178.14,86.28V30.46H213.3v9.64H190.73V52.42h20.81v9.64H190.73V76.64H213.3v9.64Z"/><path class="cls-2" d="M236.87,63.9h-4.7V86.28H219.59V30.46h22.15c11.16,0,18.12,4.27,18.12,16.43,0,8.21-3.78,13.41-10.07,15.42l14.51,24h-15.1Zm.59-24.31h-5.29V55.1h5.29c5.62,0,9.56-1.93,9.56-8.21C247,40.26,243.08,39.59,237.46,39.59Z"/><path class="cls-2" d="M309.53,58.12c0,19.53-8.31,29-22.82,29S264,77.65,264,58.12c0-19,8.31-28.5,22.82-28.5S309.53,39.09,309.53,58.12Zm-32.47.25c0,12.82,3.1,19,9.73,19s9.65-6.2,9.65-19-3.1-19-9.65-19S277.06,45.54,277.06,58.37Z"/><path class="cls-2" d="M335.54,87.12c-14.93,0-23.24-10.31-23.24-29,0-18.19,8.31-28.5,24.08-28.5a75.44,75.44,0,0,1,16.19,1.76l-1.76,9a89.64,89.64,0,0,0-14.43-1c-7.89,0-11,7-11,19s3.1,19,10.15,19a55.47,55.47,0,0,0,7.8-.5V62.22H336v-10h18.88V84.69A85.54,85.54,0,0,1,335.54,87.12Z"/><path class="cls-2" d="M362,86.28V30.46H397.2v9.64H374.63V52.42h20.81v9.64H374.63V76.64H397.2v9.64Z"/><path class="cls-2" d="M450.06,86.28H436.21L432.86,74H415.07l-3.36,12.32H398.63l17.28-55.82h16.78ZM417.5,64.9h12.84L424,41.52Z"/><path class="cls-2" d="M470,63.9h-4.7V86.28H452.74V30.46h22.15C486,30.46,493,34.73,493,46.88c0,8.21-3.78,13.41-10.07,15.42l14.51,24h-15.1Zm.59-24.31h-5.29V55.1h5.29c5.62,0,9.56-1.93,9.56-8.21C480.18,40.26,476.23,39.59,470.61,39.59Z"/><path d="M71.49,111.76a2.42,2.42,0,0,0-2.41-2.41l-24.76-2.6V54a31.38,31.38,0,0,0,14.92-8.06c7.11-7,10.71-17.21,10.71-30.45V9.09a5.09,5.09,0,0,0-10.18,0v1.18H16.29V9.09a5.09,5.09,0,0,0-10.18,0v6.37c0,13.24,3.6,23.49,10.71,30.45a31.25,31.25,0,0,0,14.35,7.92v53L6.41,109.35A2.42,2.42,0,0,0,4,111.76v81.85H4c0,.08,0,.15,0,.23,0,17.82,15.11,27.41,33.74,27.41s33.74-9.59,33.74-27.41c0-.34,0-.67,0-1h0ZM23.95,38.65c-3.71-3.64-6.08-8.79-7.09-15.35H59.2c-1,6.5-3.34,11.62-7,15.25a21.87,21.87,0,0,1-14.08,6.06h-.2A21.69,21.69,0,0,1,23.95,38.65Z"/><ellipse class="cls-3" cx="37.74" cy="202" rx="5.87" ry="5.86"/><path class="cls-2" d="M9.62,182.33V186A2.42,2.42,0,0,0,12,188.43H63.45A2.42,2.42,0,0,0,65.86,186V126.15Z"/><path class="cls-3" d="M63.45,115.25H45.17l-7.42,32.9-7.42-32.9H12a2.42,2.42,0,0,0-2.41,2.41v64.67l56.24-56.19v-8.49A2.42,2.42,0,0,0,63.45,115.25Z"/></svg>